<?xml version="1.0" encoding="UTF-8"?><svg id="Calque_2" xmlns="http://www.w3.org/2000/svg" viewBox="0 0 534.61 87.81"><defs><style>.cls-1{fill:#fff;}</style></defs><g id="Calque_1-2"><rect width="87.81" height="87.81" rx="17.37" ry="17.37"/><path class="cls-1" d="M28.15,62.36v-4.71c0-2.1.83-4.11,2.31-5.6l12.9-12.98,13.82,13.1c1.58,1.5,2.48,3.59,2.48,5.77v4.43h15.57v-10.35c0-2.68-1.1-5.24-3.05-7.08l-22.23-21.07c-3.85-3.65-9.9-3.55-13.64.21l-20.89,21.04c-1.82,1.83-2.83,4.3-2.83,6.88v10.39h15.57Z"/><path class="cls-1" d="M216.03,31.44l-.51,11.69h-2.12c-8.18,0-12.64,4.24-12.64,13.74v11.47h-11.69V31.66h11.69v7.02c2.63-4.38,6.65-7.53,12.64-7.53,1.02,0,1.75.07,2.63.29Z"/><path class="cls-1" d="M255.91,45.83v22.5h-11.62v-20.02c0-4.31-2.56-7.23-6.28-7.23-4.6,0-7.6,3.14-7.6,10.23v17.03h-11.69V31.66h11.69v3.51c2.78-2.92,6.65-4.6,11.25-4.6,8.55,0,14.25,6.06,14.25,15.27Z"/><path class="cls-1" d="M296.4,52.99h-26.89c.95,4.38,3.94,7.09,7.89,7.09,2.7,0,5.85-.66,7.82-4.24l10.38,2.12c-3.14,7.74-9.79,11.47-18.19,11.47-10.59,0-19.36-7.82-19.36-19.44s8.77-19.43,19.43-19.43,18.71,7.45,18.93,19.43v3ZM269.73,45.83h15.13c-1.1-3.95-4.02-5.77-7.38-5.77s-6.65,2.05-7.74,5.77Z"/><path class="cls-1" d="M326.01,31.44l-.51,11.69h-2.12c-8.18,0-12.64,4.24-12.64,13.74v11.47h-11.69V31.66h11.69v7.02c2.63-4.38,6.65-7.53,12.64-7.53,1.02,0,1.76.07,2.63.29Z"/><path class="cls-1" d="M166.33,30.71c-10.34,0-19.02,6.72-20.17,16.95h0c-1.68,7.3-6.65,10.81-12.86,10.81-7.74,0-13.96-6.28-13.96-14.61s6.21-14.54,13.96-14.54c3.85,0,7.2,1.3,9.58,3.93l8.3-8.3c-4.58-4.26-10.92-6.66-17.88-6.66-14.54,0-26.01,11.25-26.01,25.57s11.47,25.57,26.01,25.57c7.05,0,13.24-2.26,17.73-6.41,3.74,4,9.24,6.33,15.31,6.33,10.89,0,20.09-7.74,20.09-19.36s-9.21-19.29-20.09-19.29ZM166.33,59.5c-4.75,0-9.06-3.73-9.06-9.5s4.31-9.5,9.06-9.5,8.84,3.8,8.84,9.5-4.31,9.5-8.84,9.5Z"/><path class="cls-1" d="M386.62,41.19c.07.92.07,1.7.07,2.4,0,13.72-9.69,24.53-23.76,24.53s-24.67-10.82-24.67-24.6,10.82-24.6,24.53-24.6c10.32,0,18.95,5.02,22.34,13.72l-5.02,1.77c-3.32-6.86-9.76-10.25-17.32-10.25-10.6,0-18.88,8.48-18.88,19.37s8.41,19.37,19.16,19.37c10.11,0,17.11-7.07,18.24-16.61h-20.93v-5.09h26.23Z"/><path class="cls-1" d="M415.19,32.28l-.42,5.16c-.64-.07-1.41-.07-2.05-.07-9.26,0-14,7-14,16.4v13.43h-5.44v-34.86h5.44v8.55c2.83-5.16,7.57-8.91,14-8.91.85,0,1.48,0,2.47.28Z"/><path class="cls-1" d="M451.74,49.74c0,10.68-8.2,18.31-18.45,18.31s-18.52-7.64-18.52-18.31,8.13-18.17,18.52-18.17,18.45,7.49,18.45,18.17ZM446.44,49.74c0-7.99-6.01-13.43-13.15-13.43s-13.29,5.44-13.29,13.43,6.08,13.57,13.29,13.57,13.15-5.51,13.15-13.57Z"/><path class="cls-1" d="M489.15,67.13h-5.44v-5.66c-2.83,4.17-7.35,6.58-13.15,6.58-8.41,0-14-6.01-14-14.85v-20.86h5.44v19.87c0,6.5,3.82,10.82,9.61,10.82,7.28,0,12.09-4.88,12.09-13.93v-16.76h5.44v34.78Z"/><path class="cls-1" d="M534.61,49.81c0,11.03-8.13,18.31-17.39,18.31-5.8,0-10.75-2.33-13.86-6.43v17.53h-5.37v-46.87h5.37v5.59c3.11-4.1,8.06-6.43,13.86-6.43,9.26,0,17.39,7.28,17.39,18.31ZM529.38,49.81c0-8.34-5.8-13.57-13.01-13.57-6.58,0-13.01,5.23-13.01,13.57s6.43,13.5,13.01,13.5c7.21,0,13.01-5.23,13.01-13.5Z"/></g></svg>