<?xml version="1.0" encoding="UTF-8"?><svg id="Calque_2" xmlns="http://www.w3.org/2000/svg" width="366.1mm" height="366.1mm" viewBox="0 0 1037.7 1037.7"><g id="Calque_2-2"><rect width="1037.7" height="1037.7" rx="47.6" ry="47.6" style="fill:#010101;"/><path d="M893.4,617.2h-112.7c-3,0-5.5,2.5-5.5,5.5v2.3c0,3,2.5,5.5,5.5,5.5h126c3.8,0,6.4,3.8,5.2,7.3l-8.5,23.9c-.8,2.2-2.8,3.6-5.2,3.6h-339.4c-3,0-5.5-2.5-5.5-5.5v-118.9c0-3,2.5-5.5,5.5-5.5h340.9c3,0,5.5,2.5,5.5,5.5v24.1c0,3-2.5,5.5-5.5,5.5h-119c-3,0-5.5,2.5-5.5,5.5v.6c0,3,2.5,5.5,5.5,5.5h112.7c3,0,5.5,2.5,5.5,5.5v24.1c0,3-2.5,5.5-5.5,5.5Z" style="fill:#fff;"/><path d="M130.6,372.4h179.3c2.8,0,5.1,2.3,5.1,5.1v84.6c0,2.8,2.3,5.1,5.1,5.1h196.2c2.8,0,5,2.2,5.1,5l.3,24.9c0,2.8-2.3,5.2-5.1,5.2H130.6c-2.8,0-5.1-2.3-5.1-5.1v-119.7c0-2.8,2.3-5.1,5.1-5.1Z" style="fill:#fff;"/><path d="M900.1,378.1v118.3c0,3.2-5.5,5.7-12.3,5.7h-322.2c-6.8,0-12.3-2.6-12.3-5.7v-118.3c0-3.2,5.5-5.7,12.3-5.7h322.2c6.8,0,12.3,2.6,12.3,5.7Z" style="fill:#fff;"/><path d="M421.4,535.5h-15.9c-1.9,0-3.6,1.1-4.3,2.9l-11.6,27.1c-1.6,3.7-6.8,3.8-8.6.2l-13.4-27.5c-.8-1.6-2.4-2.6-4.2-2.6h-86.3c-1.9,0-3.6,1.1-4.3,2.9l-11.6,27.1c-1.6,3.7-6.8,3.8-8.6.2l-14.7-30.1h-106.2c-3.5,0-5.8,3.7-4.2,6.8l58.8,120.4c.8,1.6,2.4,2.6,4.2,2.6h114.6c1.9,0,3.6-1.1,4.3-2.9l9.8-22.9c1.6-3.7,6.8-3.8,8.6-.2l11.4,23.3c.8,1.6,2.4,2.6,4.2,2.6h110.9c1.8,0,3.4-1,4.2-2.5l62.7-120.4c1.6-3.1-.6-6.9-4.2-6.9h-95.5Z" style="fill:#fff;"/></g></svg>