<?xml version="1.0" encoding="UTF-8"?><svg id="Calque_2" xmlns="http://www.w3.org/2000/svg" width="326.7mm" height="41mm" viewBox="0 0 926.1 116.3"><g id="Calque_2-2"><path d="M808.6,79.3h-86.6c-2.3,0-4.2,1.9-4.2,4.2v1.8c0,2.3,1.9,4.2,4.2,4.2h96.8c2.9,0,4.9,2.9,4,5.6l-6.6,18.3c-.6,1.7-2.2,2.8-4,2.8h-169.6c-2.3,0-4.2-1.9-4.2-4.2V20.8c0-2.3,1.9-4.2,4.2-4.2h176.1c2.3,0,4.2,1.9,4.2,4.2,0,0-6.4,14-8.8,18.5s-3.1,4.2-5.4,4.2h-86.7c-2.3,0-4.2,1.9-4.2,4.2v.5c0,2.3,1.9,4.2,4.2,4.2h86.6c2.3,0,4.2,1.9,4.2,4.2v18.5c0,2.3-1.9,4.2-4.2,4.2Z" style="fill:#010101;"/><path d="M3.9,16.6h74.4c2.2,0,3.9,1.7,3.9,3.9v65c0,2.2,1.7,3.9,3.9,3.9h101.4c2.1,0,3.9,1.7,3.9,3.9l.3,19.1c0,2.2-1.7,4-3.9,4H3.9c-2.2,0-3.9-1.7-3.9-3.9V20.5c0-2.2,1.7-3.9,3.9-3.9Z" style="fill:#010101;"/><path d="M292.2,21v90.9c0,2.4-2,4.4-4.4,4.4h-73.2c-2.4,0-4.4-2-4.4-4.4V21c0-2.4,2-4.4,4.4-4.4h73.2c2.4,0,4.4,2,4.4,4.4Z" style="fill:#010101;"/><path d="M537.2,16.6h-12.2c-1.4,0-2.8.9-3.3,2.2l-8.9,20.8c-1.2,2.8-5.2,2.9-6.6.2l-10.3-21.1c-.6-1.2-1.9-2-3.3-2h-66.3c-1.4,0-2.8.9-3.3,2.2l-8.9,20.8c-1.2,2.8-5.2,2.9-6.6.2l-11.3-23.1h-81.6c-2.7,0-4.4,2.8-3.3,5.2l45.2,92.5c.6,1.2,1.9,2,3.3,2h88c1.4,0,2.8-.9,3.3-2.2l7.5-17.6c1.2-2.8,5.2-2.9,6.6-.2l8.7,17.9c.6,1.2,1.9,2,3.3,2h85.2c1.3,0,2.6-.8,3.2-1.9l48.1-92.5c1.3-2.4-.5-5.3-3.2-5.3h-73.4Z" style="fill:#010101;"/><path d="M926,41.7l-10.8-18.7c0-.1-.2-.3-.3-.4-.6-.6-.7-1.4-.3-2.1,0,0,8.3-15.4,10.3-19.5.2-.5-.1-1-.6-1-5,0-13.1.1-24.2.3,0,0-5.5,0-12.9,0-.2.2-.4.4-.5.6l-3.9,9.1c-.5,1.2-2.3,1.3-2.9,0l-4.8-9.9c-11.8,0-24,0-27.4,0h-7.3c-.5,0-.9.6-.6,1,2.2,4.1,10.1,19.3,10.1,19.3.3.6.3,1.2,0,1.7-2.1,3.4-9.6,16.3-11.7,20.1-.3.5,0,1,.6,1h12.3c2.3,0,13,0,25.6-.2l3.8-8.7c.5-1.2,2.3-1.3,2.9,0l4.3,8.7c16.5-.1,33.3-.2,37.9-.3.5,0,.9-.6.6-1.1Z" style="fill:#010101;"/></g></svg>