<?xml version="1.0" encoding="UTF-8"?><svg id="Calque_2" xmlns="http://www.w3.org/2000/svg" width="326.7mm" height="70.5mm" viewBox="0 0 926.1 199.9"><g id="Calque_2-2"><path d="M137.5,149v49.8h-16.2v-49.8h16.2Z" style="fill:#010101;"/><path d="M205.9,198.8v-49.8h18.9c11,17.8,14.8,24.3,18,30.7h.3c-.4-4.7-.4-13.7-.4-21.9v-8.8h14.6v49.8h-17.8c-3.9-6.9-16.1-28.1-19.1-34.2h-.2c.5,5.7.5,12.3.5,22.1v12.1h-14.6Z" style="fill:#010101;"/><path d="M338.7,198.8l-19.4-49.8h17.6l7.3,22.4c2.7,8.2,3.8,12.5,4.6,16h.1c.8-3.2,1.2-5.3,5.1-16.8l6.8-21.6h17.4l-19.8,49.8h-19.8Z" style="fill:#010101;"/><path d="M482.6,179h-26.6v8.3h29.8l-1.9,11.5h-43.9v-49.8h44v11.5h-28v6.9h26.6v11.5Z" style="fill:#010101;"/><path d="M563.2,183.8c1,3.3,3.6,5.8,10.1,5.8s7.5-1.7,7.5-4.2-1.6-4.2-10.9-5.8c-18.4-3.2-21-9.5-21-16.1,0-9.9,9.3-15.6,22.9-15.6s23.2,7.7,23.9,15h-15.7c-.6-2.2-2-4.8-8.1-4.8s-6.5,1.4-6.5,3.8,2.1,3.4,9.8,4.8c18.8,3.4,22.5,9.3,22.5,16.8s-8,16.4-24.9,16.4-24.1-7.1-25.6-16.1h16.2Z" style="fill:#010101;"/><path d="M673.9,160.5h-16.4v-11.5h49v11.5h-16.3v38.3h-16.2v-38.3Z" style="fill:#010101;"/><path d="M808.6,79.3h-86.6c-2.3,0-4.2,1.9-4.2,4.2v1.8c0,2.3,1.9,4.2,4.2,4.2h96.8c2.9,0,4.9,2.9,4,5.6l-6.6,18.3c-.6,1.7-2.2,2.8-4,2.8h-169.6c-2.3,0-4.2-1.9-4.2-4.2V20.8c0-2.3,1.9-4.2,4.2-4.2h176.1c2.3,0,4.2,1.9,4.2,4.2,0,0-6.4,14-8.8,18.5s-3.1,4.2-5.4,4.2h-86.7c-2.3,0-4.2,1.9-4.2,4.2v.5c0,2.3,1.9,4.2,4.2,4.2h86.6c2.3,0,4.2,1.9,4.2,4.2v18.5c0,2.3-1.9,4.2-4.2,4.2Z" style="fill:#010101;"/><path d="M3.9,16.6h74.4c2.2,0,3.9,1.7,3.9,3.9v65c0,2.2,1.7,3.9,3.9,3.9h101.4c2.1,0,3.9,1.7,3.9,3.9l.3,19.1c0,2.2-1.7,4-3.9,4H3.9c-2.2,0-3.9-1.7-3.9-3.9V20.5c0-2.2,1.7-3.9,3.9-3.9Z" style="fill:#010101;"/><path d="M292.2,21v90.9c0,2.4-2,4.4-4.4,4.4h-73.2c-2.4,0-4.4-2-4.4-4.4V21c0-2.4,2-4.4,4.4-4.4h73.2c2.4,0,4.4,2,4.4,4.4Z" style="fill:#010101;"/><path d="M537.2,16.6h-12.2c-1.4,0-2.8.9-3.3,2.2l-8.9,20.8c-1.2,2.8-5.2,2.9-6.6.2l-10.3-21.1c-.6-1.2-1.9-2-3.3-2h-66.3c-1.4,0-2.8.9-3.3,2.2l-8.9,20.8c-1.2,2.8-5.2,2.9-6.6.2l-11.3-23.1h-81.6c-2.7,0-4.4,2.8-3.3,5.2l45.2,92.5c.6,1.2,1.9,2,3.3,2h88c1.4,0,2.8-.9,3.3-2.2l7.5-17.6c1.2-2.8,5.2-2.9,6.6-.2l8.7,17.9c.6,1.2,1.9,2,3.3,2h85.2c1.3,0,2.6-.8,3.2-1.9l48.1-92.5c1.3-2.4-.5-5.3-3.2-5.3h-73.4Z" style="fill:#010101;"/><path d="M926,41.7l-10.8-18.7c0-.1-.2-.3-.3-.4-.6-.6-.7-1.4-.3-2.1,0,0,8.3-15.4,10.3-19.5.2-.5-.1-1-.6-1-5,0-13.1.1-24.2.3,0,0-5.5,0-12.9,0-.2.2-.4.4-.5.6l-3.9,9.1c-.5,1.2-2.3,1.3-2.9,0l-4.8-9.9c-11.8,0-24,0-27.4,0h-7.3c-.5,0-.9.6-.6,1,2.2,4.1,10.1,19.3,10.1,19.3.3.6.3,1.2,0,1.7-2.1,3.4-9.6,16.3-11.7,20.1-.3.5,0,1,.6,1h12.3c2.3,0,13,0,25.6-.2l3.8-8.7c.5-1.2,2.3-1.3,2.9,0l4.3,8.7c16.5-.1,33.3-.2,37.9-.3.5,0,.9-.6.6-1.1Z" style="fill:#010101;"/></g></svg>